<svg id="Layer_1" data-name="Layer 1" xmlns="http://www.w3.org/2000/svg" viewBox="0 0 768 171.75"><defs><style>.cls-1{fill:#303030;}</style></defs><path class="cls-1" d="M0,167.25V3c1.5,0,3,.14,4.49.14,24.5,0,49-.22,73.49.14a95.57,95.57,0,0,1,22.93,2.93c14.56,3.87,25.25,12.78,29.15,27.85,4.68,18,.06,35.38-19.73,43.53a17.78,17.78,0,0,0-1.9,1.12c1,.44,1.51.7,2,.9,15.5,5.85,25.07,16.83,27.1,33.32,2.1,17-2.18,32-16.36,43a52.85,52.85,0,0,1-32,11.16c-29.24.49-58.49.34-87.73.43A6.86,6.86,0,0,1,0,167.25Zm40.57-32.34c13.12,0,25.85.28,38.57-.09,8.93-.26,15.55-5.6,17.73-13.13,4-13.69-4.77-25.3-19.57-25.62C65.57,95.81,53.82,96,42.08,96a8.1,8.1,0,0,0-1.51.29Zm0-66.63c12.06,0,23.67,0,35.28,0a19.28,19.28,0,0,0,5.5-1C88.73,64.89,92.85,59,92.67,51.4s-4.39-13-11.8-15a33.7,33.7,0,0,0-8.13-1.06c-9.62-.12-19.24,0-28.86,0-1.08,0-2.15.13-3.28.21Z"/><path class="cls-1" d="M230.25,171.75h-18a15.64,15.64,0,0,0-2.45-.67c-25.91-3-45.4-16-58.11-38.62-12.18-21.68-14.15-45.2-8.92-69,6.77-30.77,24.74-52.09,55.95-60.69C203.38,1.47,208.23.9,213,0h17.25a24.37,24.37,0,0,0,2.87.68C257.51,3.48,276.46,15.2,289.44,36c14.14,22.63,16.48,47.51,10.8,72.92-6.87,30.65-25.1,51.63-56.09,60.16C239.61,170.29,234.89,170.86,230.25,171.75ZM261.57,86c-.26-12.37-2-24.39-8.48-35.27a36.51,36.51,0,0,0-62.19-1c-6,9.31-8.44,19.68-9,30.55-.84,15.25,1,30,9.82,43,14.79,21.71,47.57,20.76,61.21-1.67C259.55,110.6,261.32,98.48,261.57,86Z"/><path class="cls-1" d="M394.5,0c4.64.89,9.36,1.47,13.89,2.71,31,8.54,49.23,29.51,56.09,60.16,5.69,25.41,3.34,50.29-10.8,72.92-13,20.76-31.93,32.48-56.31,35.29a24.33,24.33,0,0,0-2.87.67h-18a15.64,15.64,0,0,0-2.45-.67c-25.91-3-45.4-16-58.11-38.62-12.19-21.68-14.16-45.2-8.92-69,6.76-30.78,24.74-52.09,56-60.69C367.63,1.46,372.48.9,377.25,0Zm31.31,85.87c-.25-12.25-2-24.15-8.32-34.94a36.51,36.51,0,0,0-62.6-.88c-5.81,9.24-8.21,19.51-8.8,30.25-.81,15,1,29.49,9.46,42.39,14.67,22.25,47.82,21.55,61.63-1.21C423.83,110.51,425.57,98.38,425.81,85.87Z"/><path class="cls-1" d="M530.25,171.75c-5.76-1-11.58-1.75-17.28-3-11-2.49-21.09-7-29.57-14.62-11.13-10-15.61-22.76-15.55-37.69h40.23c.15.19.39.36.42.56,2,12.91,9.41,20.37,24.84,22.22,7.63.92,15.23.63,22.5-2.35,5.79-2.37,10-6,10.64-12.76s-2.61-11.11-8-14.06a58.56,58.56,0,0,0-12.06-4.9c-10.32-2.93-20.83-5.23-31.11-8.29a125,125,0,0,1-18.81-7.28c-17.31-8.41-25.84-25.06-23.79-44.37,1.92-18,11-30.75,27.56-37.48,24.81-10.09,50-10.49,74.61.63,16.49,7.44,25.32,20.89,27.18,38.88a34.75,34.75,0,0,1,0,3.56H562.58c-1.23-7.37-4.68-13.43-11.79-16.55a35,35,0,0,0-28.74-.12c-5.67,2.42-9.38,6.63-9.07,13.32.29,6.32,4.35,9.78,9.79,11.41,10.51,3.14,21.14,5.91,31.76,8.67,12.38,3.21,24.48,7,35.33,14a37.3,37.3,0,0,1,16.91,25c5.54,28.33-8.21,51.3-36.66,60.61-6.58,2.15-13.56,3.08-20.36,4.57Z"/><path class="cls-1" d="M768,144.75c-.72,2.11-1.33,4.26-2.16,6.31-4.82,11.85-17.2,18.33-30.64,16.12A27.07,27.07,0,0,1,713.14,143c-1.19-15.32,7.94-28.08,21.77-30.43,15.86-2.69,28.49,5.66,32.56,21.5a4.55,4.55,0,0,0,.53,1ZM740.59,163c12.61,0,21.85-9.73,21.94-23s-9.4-23.28-22.14-23.22-21.91,9.8-21.91,23C718.48,153.26,727.73,163,740.59,163Z"/><path class="cls-1" d="M740.82,3.4V37.51H692.88V167.32H652.07V37.69H604.49V3.4Z"/><path class="cls-1" d="M737.26,144.07v9.81h-8.51V125.46c6.17,0,12.25-.36,18.25.15a7.32,7.32,0,0,1,6.61,6.29c.69,3.73-.66,6.62-4.55,8.63,5.78,3.11,3.71,8.66,5,13.37-1.16.1-2,.25-2.87.23-5.73-.19-5.76,1.46-6.46-5.61C744.34,144.19,743.24,143.52,737.26,144.07Zm.17-5.4a67.53,67.53,0,0,0,7.16-2.64c.35-.17.16-2.77-.24-2.91a57.61,57.61,0,0,0-6.92-1.62Z"/></svg>