<svg id="Layer_1" data-name="Layer 1" xmlns="http://www.w3.org/2000/svg" viewBox="0 0 136.16 137.59"><path d="M43.27,137.59c-1.45-4.52-2.84-8.76-4.19-13-3.86-12.15-8.62-23.89-15.39-34.76a150.53,150.53,0,0,0-17.89-23C4.14,65.08,2.49,63.28,1,61.37a8.94,8.94,0,0,1-1-2.55,9.08,9.08,0,0,1,2.71,0,47.08,47.08,0,0,1,13,7.16A90.86,90.86,0,0,1,40,92.81c.71,1.15,1.26,2.4,1.9,3.6.25.47.57.92,1,1.62a17.08,17.08,0,0,0,.92-1.46c16-34.72,39.7-63.09,70.67-85.44a103.64,103.64,0,0,1,16.22-9.72A23.9,23.9,0,0,1,134.7,0a1.63,1.63,0,0,1,1.37.41c.19.23,0,.94-.18,1.3a13.16,13.16,0,0,1-1.75,2.43c-4.83,5-9.65,10-14.57,14.94C102.86,35.79,87.36,53.47,74.26,73.17a248.43,248.43,0,0,0-26.54,52.91c-1.22,3.38-2.55,6.72-3.84,10.08C43.73,136.56,43.55,137,43.27,137.59Z"/></svg>