<svg id="Layer_1" data-name="Layer 1" xmlns="http://www.w3.org/2000/svg" viewBox="0 0 107.3 35.17"><defs><style>.cls-1{fill:#303030;}</style></defs><path class="cls-1" d="M26.38,12.42H13.86v3.72h8.88c-.44,5.2-4.77,7.43-8.86,7.43a9.76,9.76,0,0,1-9.8-9.72,1,1,0,0,1,0-.17,9.78,9.78,0,0,1,9.81-9.95,9.63,9.63,0,0,1,6.69,2.68l2.6-2.69A13.23,13.23,0,0,0,13.75,0,13.87,13.87,0,0,0,0,13.61,13.83,13.83,0,0,0,14,27.3c7.31,0,12.66-5,12.66-12.41a11.1,11.1,0,0,0-.23-2.47Z"/><path id="A" class="cls-1" d="M36.64,9.73a8.67,8.67,0,0,0-8.82,8.7,8.69,8.69,0,0,0,8.88,8.85,8.6,8.6,0,0,0,8.74-8.74,8.6,8.6,0,0,0-8.8-8.81Zm0,3.45a5,5,0,0,1,4.92,5.33,5,5,0,1,1-9.93,0,5.06,5.06,0,0,1,5-5.31Z"/><path id="A-2" data-name="A" class="cls-1" d="M55.82,9.73A8.67,8.67,0,0,0,47,18.43a8.69,8.69,0,0,0,8.88,8.85,8.6,8.6,0,0,0,8.74-8.74,8.6,8.6,0,0,0-8.8-8.81Zm0,3.45a5,5,0,0,1,4.92,5.33,5,5,0,1,1-9.93,0,5.06,5.06,0,0,1,5-5.31Z"/><path class="cls-1" d="M74.63,9.74a8.69,8.69,0,0,0-8.42,8.77,8.65,8.65,0,0,0,8.34,8.78,5.75,5.75,0,0,0,4.8-2.13v1.73c0,3-1.84,4.84-4.61,4.84a4.89,4.89,0,0,1-4.5-3.12L66.87,30a8.43,8.43,0,0,0,7.9,5.16c4.7,0,8.26-3,8.26-9.14V10.27H79.37v1.49a6.21,6.21,0,0,0-4.73-2ZM75,13.18c2.32,0,4.69,2,4.69,5.35s-2.37,5.31-4.74,5.31a5,5,0,0,1-4.85-5.28A5.06,5.06,0,0,1,75,13.18Z"/><path class="cls-1" d="M99.41,9.72c-4.45,0-8.19,3.54-8.19,8.76a8.49,8.49,0,0,0,8.6,8.81,8.89,8.89,0,0,0,7.35-3.85l-3-2a4.91,4.91,0,0,1-4.3,2.41,4.51,4.51,0,0,1-4.3-2.66l11.76-4.88-.6-1.43a7.93,7.93,0,0,0-7.29-5.14Zm.15,3.38A3.52,3.52,0,0,1,102.81,15L95,18.25a4.87,4.87,0,0,1,4.6-5.15Z"/><path class="cls-1" d="M85.61,26.77h3.86V.91H85.61Z"/></svg>