<svg id="Layer_1" data-name="Layer 1" xmlns="http://www.w3.org/2000/svg" viewBox="0 0 183.15 144.05"><path d="M91.4,12.8q-39.9,0-79.8,0a39.86,39.86,0,0,1-7.06-.63C1.31,11.55,0,9.08.09,6.1s1.44-5,4.53-5.58A28,28,0,0,1,9.44,0Q90.55,0,171.66,0a56,56,0,0,1,6.71.51A4.87,4.87,0,0,1,182.89,6a8.81,8.81,0,0,1-3.66,5.78c-1.8,1.13-4.56,1-6.91,1Q131.87,12.85,91.4,12.8Z"/><path d="M91.51,78.05c-28.1,0-56.21-.13-84.31.1C1,78.2-1.35,72.69.75,69.37a9.46,9.46,0,0,1,4.17-3.3c1.41-.6,3.19-.43,4.8-.43q81.14,0,162.25,0c1.5,0,3,0,4.5.12,4.28.37,6.86,3,6.65,6.58S180.52,78,176.2,78q-33,0-65.95,0Z"/><path d="M91.9,131.57q42,0,83.94,0c5.86,0,8.89,3.87,6.47,8.55-.83,1.6-3,2.81-4.79,3.53-1.53.61-3.44.33-5.19.33Q91,144,9.7,144a19.26,19.26,0,0,1-5.88-.74c-3.06-1-4.09-3.6-3.65-6.58s2.06-4.8,5.17-5c1.5-.09,3-.07,4.5-.07Z"/></svg>