<svg id="Layer_1" data-name="Layer 1" xmlns="http://www.w3.org/2000/svg" viewBox="0 0 14.01 14"><defs><style>.cls-1{fill:#303030;}</style></defs><path class="cls-1" d="M7,3.41A3.59,3.59,0,1,0,10.6,7,3.59,3.59,0,0,0,7,3.41ZM7,9.34A2.34,2.34,0,1,1,9.34,7,2.34,2.34,0,0,1,7,9.34Zm4.57-6.08a.84.84,0,1,1-.84-.83A.83.83,0,0,1,11.58,3.26ZM14,4.11a4.13,4.13,0,0,0-1.13-2.93A4.2,4.2,0,0,0,9.89.05C8.74,0,5.27,0,4.11.05A4.15,4.15,0,0,0,1.18,1.18,4.18,4.18,0,0,0,.05,4.11C0,5.27,0,8.73.05,9.89a4.12,4.12,0,0,0,1.13,2.93A4.19,4.19,0,0,0,4.11,14c1.16.06,4.63.06,5.78,0a4.17,4.17,0,0,0,2.94-1.14A4.16,4.16,0,0,0,14,9.89C14,8.73,14,5.27,14,4.11Zm-1.5,7a2.35,2.35,0,0,1-1.33,1.33A15.22,15.22,0,0,1,7,12.74a15.67,15.67,0,0,1-4.13-.28,2.3,2.3,0,0,1-1.33-1.33A15.26,15.26,0,0,1,1.26,7a15.26,15.26,0,0,1,.29-4.13A2.35,2.35,0,0,1,2.88,1.54,15.67,15.67,0,0,1,7,1.26a15.63,15.63,0,0,1,4.12.28,2.35,2.35,0,0,1,1.33,1.33A15.29,15.29,0,0,1,12.75,7,15.26,15.26,0,0,1,12.46,11.13Z"/></svg>