<svg id="Layer_1" data-name="Layer 1" xmlns="http://www.w3.org/2000/svg" viewBox="0 0 580.84 133.74"><defs><style>.cls-1{fill:#303030;}</style></defs><path class="cls-1" d="M226.31,69.85c.57-1.17,1.11-2.35,1.71-3.49,3-5.74,5.64-11.78,9.27-17.11,3.9-5.71,11.72-5.79,16.08,1a5.07,5.07,0,0,1,.45,2.57c0,9.57,0,19.14,0,28.71a12.37,12.37,0,0,0,.55,3.93c.72,2.05,1.93,2.18,3.17.39,3.17-4.57,6.28-9.17,9.37-13.79,1.17-1.75,2.15-3.64,3.37-5.36a4.7,4.7,0,0,0,.31-5.48,11.18,11.18,0,0,1,4.32-15.29,10,10,0,0,1,9.16-.63,2.56,2.56,0,0,1,1.57,3.16,27.48,27.48,0,0,1-2.22,4.77c-.57,1.07-1.44,2-2,3-1.44,2.58-.84,4.44,1.78,5.92a31.79,31.79,0,0,1,10.62,9.21c2,2.8,3.47,5.82,3.21,9.43a4.39,4.39,0,0,0,.44,1.51,4.66,4.66,0,0,0,1.47-.83c4-5,6.75-10.43,6.71-17,0-6.39,0-12.79,0-19.19,0-2.42-.45-2.82-2.83-2.79-2.89,0-5.78.06-8.67,0-1.68,0-2.09-.49-1.86-2.16a19.91,19.91,0,0,1,.67-2.74,3,3,0,0,1,3.24-2.32c2.34,0,4.68,0,7,0,2,0,2.45-.52,2.45-2.51,0-3.84,0-7.67,0-11.51,0-3.09,2.32-5.07,5.28-4.17a27.91,27.91,0,0,1,5.51,2.65,3.19,3.19,0,0,1,1.48,3.13c-.09,3.62,0,7.24,0,10.85,0,1.83.4,2.23,2.3,2.24,3.61,0,7.23,0,10.85,0,2.12,0,2.68.83,2,2.84a5.1,5.1,0,0,1-5.34,3.91c-2.78,0-5.56,0-8.34,0-2,0-2.49.45-2.49,2.45,0,11.35,0,22.7,0,34.05a13.32,13.32,0,0,0,2.12,7.6c1.22,1.78,2.92,2.22,4.57.9,3.92-3.13,6.63-7.06,6.9-12.24.3-5.78.56-11.58,2.21-17.16s4.2-10.64,9.5-13.8a10.73,10.73,0,0,1,14.67,2.9,6.47,6.47,0,0,0,1.52,1.13,8.49,8.49,0,0,1,.68-1.5c.38-.53.95-1.39,1.35-1.35A18.85,18.85,0,0,1,366,46.9c1.83.83,2.42,2.73,2.41,4.79,0,9.74-.11,19.47,0,29.21a24.59,24.59,0,0,0,1.32,7.46c1.06,3.07,4.68,3.87,7.31,1.84s3.95-4.45,3.22-7.7a42.88,42.88,0,0,1-.65-15.1c.95-7.23,3.32-14,8.58-19.29s11.13-4.87,16.39-.06c1.61,1.47,1.67,1.51,2.51-.46a1.61,1.61,0,0,1,.56-.79c2.06-1,4.16-1.52,6.4-.5a4.64,4.64,0,0,1,3,4.55l0,28.69a4.79,4.79,0,0,0,0,1,7.39,7.39,0,0,0,.46,1.18c.43-.18,1-.24,1.26-.56a39.72,39.72,0,0,0,3-4.41c1.88-3.4,4.07-6.71,5.33-10.34,1.1-3.18,1.24-6.73,1.49-10.14.08-1.08-.8-2.26-1.33-3.35a7.71,7.71,0,0,1,.43-8.08c1.81-2.74,6-3,8.61-.31a13.5,13.5,0,0,1,2.56,3.84c1.26,2.69,2.74,3.23,5.37,1.71a10.27,10.27,0,0,1,8-1.17c2.38.62,3.34,2.09,3,4.57-.69,5.52-1.61,11-1.95,16.56a113.72,113.72,0,0,0,.26,13.81,9.16,9.16,0,0,0,1.46,4.2c2.53,4,6.08,3.09,8.73-.14a6.94,6.94,0,0,0,1.26-6,40.58,40.58,0,0,1,0-16.06A77.24,77.24,0,0,1,468,55.15a15.49,15.49,0,0,1,7.91-8.86c4.44-2.1,8.63-1.47,12.64,1.11.52.33,1,.77,1.46,1.12.76.54,1.41.41,1.7-.49.56-1.77,1.84-2.06,3.43-1.82.66.09,1.32.15,2,.23a4,4,0,0,1,3.61,3.39,24,24,0,0,1,.39,4.14c0,8.18-.15,16.36.1,24.54A41,41,0,0,0,503,87.93a4.06,4.06,0,0,0,3.62,3.25c2,.15,3.34-1,4.34-2.6a23.21,23.21,0,0,0,3.72-12.77q0-14.28,0-28.55c0-1.81.39-2.21,2.16-2a14.69,14.69,0,0,1,3.77.57,5.68,5.68,0,0,1,4,5.9c-.08,3.17-.12,6.34-.1,9.51A6.34,6.34,0,0,0,525,63c.5-.46,1.24-.82,1.46-1.39,1.48-3.77,2.74-7.63,4.29-11.37s3.58-5.46,7.12-5a6.84,6.84,0,0,1,5.47,5,40.17,40.17,0,0,1,1.07,7.05c.21,3.83.11,7.67.2,11.51a15.59,15.59,0,0,0,.48,2.58l.72.06c.55-1.52,1.11-3,1.65-4.57,1.52-4.29,3-8.6,4.53-12.88.62-1.72,1.29-3.43,2.06-5.09a5.18,5.18,0,0,1,5.44-3.3c3.12.25,5.38,1.87,6.21,4.26,1.25,3.63.77,7.37.86,11.08.16,7.27.31,14.55.73,21.82a13.72,13.72,0,0,0,1.9,5.78c1.55,2.7,4,2.68,5.93.19a18.53,18.53,0,0,0,3.62-8.32c.08-.49.65-.89,1-1.33.37.46,1.11,1,1.07,1.39-.49,4.43-1,8.87-3.9,12.55-4.24,5.35-13.43,4.53-16.53-2.45a31.87,31.87,0,0,1-2.39-13c0-5.73.07-11.46.06-17.19a6.12,6.12,0,0,0-.62-1.73c-.4.4-1,.73-1.18,1.21-2.78,6-5.36,12-6.54,18.48-.58,3.16-1,6.35-1.52,9.53a9.36,9.36,0,0,1-.34,1.46c-1.11,3.35-4,4.17-6.42,1.57a11.62,11.62,0,0,1-2.78-5,58.43,58.43,0,0,1-1.45-10.2c-.28-5.16-.2-10.34-.28-15.51a3.35,3.35,0,0,0-.09-1.32c-.31-.6-.71-1.34-1.25-1.56-.36-.14-1.32.39-1.54.85-1.69,3.43-3.46,6.84-4.84,10.39-3,7.67-2.47,15.74-2.41,23.74,0,2.83,0,2.89-2.87,2.91-2.22,0-4.44,0-6.66,0-1.35,0-1.93-.64-1.76-2a5.48,5.48,0,0,0,.07-1.66,9.34,9.34,0,0,0-.7-1.68,16.15,16.15,0,0,0-1.38,1.05,44.91,44.91,0,0,1-4.83,4.45c-2.61,1.78-7.19,1.24-9.22-1.18a55.92,55.92,0,0,1-4.15-6.56c-.3-.49-.65-1-1-1.42-.5.38-1.21.66-1.47,1.16a19.56,19.56,0,0,1-5.63,6.48c-4.88,3.72-15.8,3.29-19.38-3-.78-1.38-1.62-.56-2.38.21a27,27,0,0,1-4,3.9c-5.36,3.46-10.77,2.3-14.27-3-3.12-4.78-3.91-10.18-3.8-15.79a70.23,70.23,0,0,1,2.85-17.22c.36-1.31-.06-2-1.36-2a49.44,49.44,0,0,0-5.84.06,5.06,5.06,0,0,0-4.33,3.66c-1.39,3.75-2.71,7.53-4.32,11.19a50.47,50.47,0,0,1-11.91,17.12,4.72,4.72,0,0,0-1.55,4c0,8,.17,15.92-.37,23.84a18.55,18.55,0,0,1-7.28,13.93c-5.16,3.94-14.89,4.36-20.23.84a7.13,7.13,0,0,1-3.37-5.65c-.41-5.32,1.54-9.92,4.75-13.87,3.71-4.56,7.87-8.75,11.82-13.12,1.53-1.69,3.06-3.39,4.49-5.16a4.2,4.2,0,0,0,.83-2.1,4.62,4.62,0,0,0-.53-1.75c-.56.28-1.3.42-1.66.87a14.15,14.15,0,0,1-7,4.86c-6,1.85-11.59.6-15-4.72-.91-1.42-1.49-1.41-2.64-.14a45.53,45.53,0,0,1-4,4c-4.81,4.09-11.84,1.53-14.51-3.64-.31-.59-.54-1.23-.88-1.8a14.85,14.85,0,0,0-1-1.37,7.38,7.38,0,0,0-1.1,1.14c-3.41,5.38-8.37,7.7-14.6,7.09-6-.59-9.51-4.57-12-9.64a17.13,17.13,0,0,0-1.1-1.71,7.09,7.09,0,0,0-1.43,1.65,17.71,17.71,0,0,1-5.67,7.48c-6.21,4.64-14.08,2.45-16.71-4.86-.91-2.54-1.21-5.29-1.88-7.92a9.57,9.57,0,0,0-1-1.92,7.32,7.32,0,0,0-1.28,1.6c-2.34,5.82-6,10.53-11.62,13.47a14.87,14.87,0,0,1-5.68,1.72,60.13,60.13,0,0,1-10.48-.07,8.56,8.56,0,0,1-6.74-4.07,3.6,3.6,0,0,1-.12-3.94c.91-1.51,2.21-2.83,4.09-2.76a3.66,3.66,0,0,1,2.38,1.55c1.46,2,3.34,3,5.73,2.5a6.9,6.9,0,0,0,5.51-5.43c.82-3.7-.86-6.7-3.21-9.23a89.19,89.19,0,0,0-7.24-6.62c-.91-.8-1.35,0-1.75.74-1.59,2.87-3.1,5.78-4.8,8.58-3.42,5.67-6.93,11.3-11.84,15.84a13.68,13.68,0,0,1-4.39,2.91c-3.59,1.31-7.18-.56-8.38-4.44a28.94,28.94,0,0,1-1.33-8c-.17-9-.07-18-.11-27a5.33,5.33,0,0,0-.6-1.57c-.56.29-1.3.45-1.65.9a64.73,64.73,0,0,0-8.41,13.75,76.32,76.32,0,0,0-6.31,25.1,1.76,1.76,0,0,1-1.88,1.88h-.17c-5.12.6-7.86-.59-7.92-7.36-.11-14-.07-28,0-42.06,0-.55.58-1.53,1-1.57,2.32-.25,4.7-.05,6.28,1.87a6.22,6.22,0,0,1,1.33,3.61c.11,5.61,0,11.23,0,16.85a9.92,9.92,0,0,0,.38,2Zm115,2.58a24.49,24.49,0,0,0,1.65,10.44,23.25,23.25,0,0,0,3.58,5.7,2.88,2.88,0,0,0,4.32.39,16.44,16.44,0,0,0,3.83-4.07c3-4.84,3.59-10.34,3.84-15.86.21-4.53-.08-9-2.5-13.06a6.62,6.62,0,0,0-5.82-3.58c-2.51,0-3.8,1.79-4.93,3.7C342.49,60.77,341.51,65.91,341.27,72.43Zm48.29.15-.45.09a89.24,89.24,0,0,0,2.1,10.21,20,20,0,0,0,3.52,5.71,2.83,2.83,0,0,0,4.2.43,17.29,17.29,0,0,0,4-4.28c2.67-4.26,3.38-9.15,3.67-14s.44-10-2.32-14.57c-1.36-2.25-3.22-3.71-5.9-3.72s-3.88,1.85-5,3.84C390.53,61.31,389.6,66.84,389.56,72.58ZM491.48,68.8c0-1.73.14-3.46,0-5.16-.36-3.65-1.27-7.11-4.11-9.75a5.11,5.11,0,0,0-7.65.39,8.25,8.25,0,0,0-1.62,2.29,87.26,87.26,0,0,0-2.92,9.13A30.79,30.79,0,0,0,476,82.79a12,12,0,0,0,3.91,6.07,3.26,3.26,0,0,0,4,.17,12.49,12.49,0,0,0,5-6.26A33.49,33.49,0,0,0,491.48,68.8Zm-82.55,36.89c0-.73.05-1.45,0-2.17a14.2,14.2,0,0,0-.38-1.69,5.9,5.9,0,0,0-1.88.77c-2.39,2.25-4.76,4.52-7,6.89a30.92,30.92,0,0,0-7,10.66c-1.23,3.37,0,6.43,2.92,7.15a8.39,8.39,0,0,0,10-4.58C408.4,117.36,408.45,111.49,408.93,105.69Z"/><path class="cls-1" d="M0,60.78c0-8.9-.06-17.8,0-26.7A33.19,33.19,0,0,1,4.24,18.79,34.59,34.59,0,0,1,18.87,4.16a33.23,33.23,0,0,1,15.5-4C52.61.05,70.87-.14,89.11.18,100.68.39,110,5.58,116.88,15a33.67,33.67,0,0,1,6.6,20.11q.15,25.53,0,51.07c0,10.86-4,20.09-12.2,27.29a33.36,33.36,0,0,1-22.37,8.67c-18.13.09-36.27.19-54.4,0-11.92-.15-21.32-5.55-28.22-15.24A34.23,34.23,0,0,1,0,86.65C0,78,0,69.41,0,60.78Zm10.91,0h.18q0,10.35,0,20.7c0,4.62.24,9.23,1.73,13.67,1.55,4.63,4,8.69,8.12,11.49,5.6,3.82,12,4.93,18.56,5,14.41,0,28.82,0,43.22,0a41,41,0,0,0,14.39-2.33c7-2.57,11.18-7.78,13.42-14.68,1.42-4.39,1.62-9,1.62-13.53,0-13.24,0-26.48,0-39.71a48.34,48.34,0,0,0-1.63-13.87,22.05,22.05,0,0,0-7.16-11.21,26.24,26.24,0,0,0-15.89-5.66q-9.83-.42-19.68-.24c-12.11.21-24.24-.79-36.33.67a22.92,22.92,0,0,0-12.43,5.16c-5,4.28-7.16,10.09-7.5,16.39C11.07,42,11.12,51.42,10.93,60.81Z"/><path class="cls-1" d="M205.67,55.2c0,10.07.25,20.14-.1,30.2a30,30,0,0,1-5,16.2,11.27,11.27,0,0,1-5.9,4.66,2.12,2.12,0,0,1-1.68-.19c-.24-.16-.15-1,0-1.51a47.7,47.7,0,0,0,2.75-17q0-30.14,0-60.26a5.81,5.81,0,0,0-.61-1.75,7,7,0,0,0-1.62.89,29,29,0,0,0-9.1,16.85,31.28,31.28,0,0,0,1.77,17.35c.17.41.56.75.64,1.16.13.69.38,1.67,0,2a2.23,2.23,0,0,1-2.06.4,14.08,14.08,0,0,1-7.62-7.78c-3.82-9.32-1.41-17.6,4.34-25.32a49.08,49.08,0,0,1,12-11.26c3.12-2.12,6.49-1.72,9.72-.34a4.52,4.52,0,0,1,2.42,4c.15,1.6.26,3.22.26,4.83,0,9,0,17.91,0,26.87Z"/><path class="cls-1" d="M61.38,29.55c17.87.27,31.73,14.32,31.45,32.09A31.43,31.43,0,1,1,61.38,29.55Zm-.7,52.13c10.85.69,21-8.71,21.41-19.77a20.92,20.92,0,0,0-20-21.62,20.71,20.71,0,0,0-1.43,41.39Z"/><path class="cls-1" d="M101.66,28.19a7.1,7.1,0,0,1-6.84,7.35,7.43,7.43,0,1,1-.48-14.85C98.14,20.7,102.05,23.72,101.66,28.19Z"/></svg>