<svg id="Layer_1" data-name="Layer 1" xmlns="http://www.w3.org/2000/svg" viewBox="0 0 252.9 50.96"><defs><style>.cls-1{fill:#303030;}</style></defs><path class="cls-1" d="M8.29,33.6a12.79,12.79,0,0,0,1.48,6.54,5,5,0,0,0,4.42,2.54c2.16,0,4.14-.54,8-5.8,3.05-4.23,6.65-10.15,9.07-13.87l4.09-6.3c2.85-4.37,6.14-9.23,9.92-12.53C48.3,1.49,51.63,0,55,0,60.6,0,66,3.26,70.05,9.37c4.49,6.69,6.67,15.11,6.67,23.81,0,5.17-1,9-2.76,12A11.5,11.5,0,0,1,63.53,51V42.68c4.7,0,5.87-4.32,5.87-9.27,0-7-1.64-14.87-5.26-20.46-2.57-4-5.9-6.39-9.56-6.39-4,0-7.15,3-10.73,8.32-1.91,2.83-3.86,6.28-6.06,10.17l-2.41,4.28c-4.86,8.61-6.09,10.57-8.52,13.81C22.61,48.8,19,51,14.19,51,8.52,51,4.93,48.5,2.71,44.79A22.22,22.22,0,0,1,0,33.31Z"/><path class="cls-1" d="M6.53,10C10.33,4.1,15.81,0,22.1,0a16.76,16.76,0,0,1,11,4.17c4.14,3.37,8.55,8.93,14,18.09l2,3.29c4.76,7.93,7.46,12,9.05,13.93,2,2.47,3.46,3.2,5.32,3.2,4.7,0,5.87-4.32,5.87-9.26l7.31-.23c0,5.17-1,9-2.75,12A11.51,11.51,0,0,1,63.53,51a13,13,0,0,1-9.79-3.9,54.11,54.11,0,0,1-7.89-10.59L39,25a79.2,79.2,0,0,0-8.45-12C28.55,10.87,26,8.34,22,8.34c-3.28,0-6,2.29-8.38,5.81Z"/><path class="cls-1" d="M22,8.33c-3.28,0-6,2.3-8.38,5.81-3.29,5-5.3,12.36-5.3,19.46a12.79,12.79,0,0,0,1.48,6.54L2.71,44.8A22.29,22.29,0,0,1,0,33.31,43.9,43.9,0,0,1,6.53,10C10.33,4.09,15.81,0,22.1,0Z"/><path class="cls-1" d="M92.82,1.61h9.58L118.7,31.1,135,1.61h9.38V50.06h-7.82V12.93L122.27,38.64h-7.34L100.64,12.93V50.06H92.82V1.61Zm76.06,18.07c-5.61,0-9,4.22-9.79,9.44h19c-.39-5.38-3.5-9.44-9.24-9.44ZM151.34,32.1c0-11,7.1-19,17.68-19,10.4,0,16.61,7.9,16.61,19.59v2.14H159.09c.94,5.69,4.71,9.52,10.79,9.52a14.29,14.29,0,0,0,10.77-4.19l4.15,5.08a21.58,21.58,0,0,1-15.19,5.68C158.16,50.92,151.34,42.57,151.34,32.1Zm43.77-11.73h-7.2V14h7.2V3.38h7.54V14h10.94v6.4H202.65V36.6c0,5.54,1.77,7.51,6.13,7.51a26.14,26.14,0,0,0,4.81-.45V50a22.58,22.58,0,0,1-6.26.87q-12.22,0-12.22-13.36Zm50.25,6.23A10.19,10.19,0,0,0,235.49,20C229,20,224.9,24.53,224.9,32c0,7.28,3.81,12.08,10.28,12.08a10.63,10.63,0,0,0,10.18-6.64Zm7.54,23.46h-7.4V45a13.93,13.93,0,0,1-11.94,5.92c-9.81,0-16.37-8.21-16.37-18.93S223.91,13.1,234,13.1a13.78,13.78,0,0,1,11.53,5.51V14h7.4Z"/></svg>