<svg id="Layer_1" data-name="Layer 1" xmlns="http://www.w3.org/2000/svg" viewBox="0 0 800 800"><defs><style>.cls-1{fill:#fff;}.cls-2{fill:#303030;fill-rule:evenodd;}</style></defs><rect class="cls-1" width="800" height="800"/><path class="cls-2" d="M221.67,256.54A17.5,17.5,0,0,1,239,239.17H554.31a17.37,17.37,0,0,1,17.36,17.37V536.79a17.51,17.51,0,0,1-17.36,17.38H239a17.38,17.38,0,0,1-17.36-17.38Zm315,17.63h-280v245L419.28,356.52a17.51,17.51,0,0,1,24.75,0l92.64,92.82Zm-245,70a35,35,0,1,0,35-35A35,35,0,0,0,291.67,344.17Z"/></svg>