<svg id="Laag_1" data-name="Laag 1" xmlns="http://www.w3.org/2000/svg" viewBox="0 0 99.8 28.5"><defs><style>.cls-1{fill:#303030;}</style></defs><path class="cls-1" d="M34.6,15.8c-.9-.5-1.3-.9-1.3-1.4,0-.7.6-1.1,1.6-1.1a5.32,5.32,0,0,1,2.1.5l.8-2.4a4.56,4.56,0,0,0-2.8-.6c-3,0-5,1.7-5,4.1A3.74,3.74,0,0,0,32.2,18c1,.6,1.4,1,1.4,1.6s-.5,1.2-1.5,1.2a7.24,7.24,0,0,1-2.8-.7l-.8,2.4a6.33,6.33,0,0,0,3.3.8c3,0,5.2-1.5,5.2-4.2a3.93,3.93,0,0,0-2.4-3.3m12.1-5.1a4.55,4.55,0,0,0-3.6,1.8h0l1.3-6.8H41L37.7,23h3.4l1.1-5.9c.4-2.2,1.6-3.6,2.7-3.6.8,0,1.1.5,1.1,1.3a7.57,7.57,0,0,1-.1,1.5l-1.3,6.8H48l1.3-7a18,18,0,0,0,.2-2.2c0-2-1-3.2-2.8-3.2m8.7,9.9c-1.2,0-1.6-1-1.6-2.2,0-1.9,1-5.1,2.8-5.1,1.2,0,1.6,1,1.6,2C58.2,17.5,57.2,20.6,55.4,20.6Zm1.7-9.9c-4.1,0-6.8,3.7-6.8,7.8A4.41,4.41,0,0,0,55,23.2c4,0,6.7-3.6,6.7-7.8A4.37,4.37,0,0,0,57.1,10.7Zm10,10a2.07,2.07,0,0,1-1.4-.5l.6-3.2c.4-2.1,1.5-3.5,2.7-3.5,1,0,1.4,1,1.4,1.9C70.3,17.6,69,20.7,67.1,20.7Zm3.3-10a4.65,4.65,0,0,0-3.6,2h0l.2-1.8H64a41.4,41.4,0,0,1-.7,4.5L60.9,27.8h3.4l.9-5h.1a4.32,4.32,0,0,0,2,.4c4,0,6.6-4.1,6.6-8.2C73.9,12.8,72.9,10.7,70.4,10.7Zm8.3-4.8a1.92,1.92,0,0,0-1.9,2,1.55,1.55,0,0,0,1.6,1.7h0a1.89,1.89,0,0,0,2-2,1.63,1.63,0,0,0-1.7-1.7M74,23h3.4l2.3-12H76.3ZM88.3,11H85.9l.1-.6c.2-1.2.9-2.2,2-2.2a3.3,3.3,0,0,1,1.1.2l.7-2.7A4.35,4.35,0,0,0,88,5.4a4.88,4.88,0,0,0-3.3,1.1,6.44,6.44,0,0,0-2,3.8l-.1.6H81l-.5,2.6h1.6L80.3,23h3.4l1.8-9.5h2.3Zm8.1,0s-2.1,5.3-3.1,8.2h0c-.1-.9-.8-8.2-.8-8.2H88.9l2,11a1.27,1.27,0,0,1-.1.6,5.78,5.78,0,0,1-1.8,2,7,7,0,0,1-1.9,1l.9,2.9a7.26,7.26,0,0,0,3.3-1.8A22.13,22.13,0,0,0,95.7,20l4.1-8.9Z"/><path class="cls-1" d="M21.5,5.3a.22.22,0,0,0-.2-.2c-.2,0-2.3-.2-2.3-.2s-1.5-1.5-1.7-1.6-.5-.1-.6-.1-.3.1-.8.3C15.4,2.1,14.5.8,13,.8h-.1A1.77,1.77,0,0,0,11.4,0C7.8-.1,6.1,4.4,5.5,6.7c-.8.2-1.6.5-2.5.8s-.8.3-.9,1C2,9,0,24.8,0,24.8l15.9,3,8.6-1.9S21.5,5.5,21.5,5.3Zm-8.7-1v.2l-2.9.8c.6-2.1,1.6-3,2.5-3.4A7,7,0,0,1,12.8,4.3ZM11.3.9c.2,0,.3.1.5.2-1.2.5-2.4,1.8-3,4.6l-2.2.6C7.3,4.3,8.7.9,11.3.9Zm.6,12.2a4.74,4.74,0,0,0-2.1-.5c-1.7,0-1.8,1-1.8,1.3,0,1.4,3.8,2,3.8,5.4,0,2.7-1.7,4.4-4,4.4A5.5,5.5,0,0,1,3.7,22l.7-2.4A5.1,5.1,0,0,0,7,20.8a1,1,0,0,0,1.1-1.1c0-1.9-3.1-2-3.1-5.1C5,12,6.9,9.5,10.6,9.5a4,4,0,0,1,2.4.4Zm1.8-9V3.8a6.87,6.87,0,0,0-.3-2.2A3,3,0,0,1,15,3.7Z"/></svg>