<?xml version="1.0" encoding="UTF-8"?>
<svg id="Layer_1" data-name="Layer 1" xmlns="http://www.w3.org/2000/svg" viewBox="0 0 119.55 137.1">
  <defs>
    <style>
      .cls-1 {
        fill: #303030;
        stroke-width: 0px;
      }
    </style>
  </defs>
  <path class="cls-1" d="M101.69,27.48c-7.53-4.89-12.72-12.66-14.38-21.48-.37-1.98-.56-3.99-.56-6h-23.56v94.46c-.36,10.98-9.55,19.6-20.54,19.24-10.98-.36-19.6-9.55-19.24-20.54s9.55-19.6,20.54-19.24c1.79.06,3.56.36,5.26.89v-24.06C25.47,47.53,3.62,64.16.4,87.9s13.41,45.59,37.15,48.81c23.74,3.22,45.59-13.41,48.81-37.15.26-1.92.39-3.86.39-5.81v-47.94c9.55,6.88,21.03,10.57,32.8,10.55v-23.57c-6.34,0-12.55-1.84-17.86-5.31Z"/>
</svg>