<svg id="Layer_1" data-name="Layer 1" xmlns="http://www.w3.org/2000/svg" viewBox="0 0 494.67 137.09"><defs><style>.cls-1{fill:#303030;}</style></defs><path class="cls-1" d="M149.7,37.35V53.28h18.66V114H187V53.71H202.2l5.21-16.36Zm152.74,0V53.28H321.1V114h18.66V53.71h15.18l5.21-16.36Zm-91.55,9a9.11,9.11,0,1,1,9.1,9A9.07,9.07,0,0,1,210.89,46.39Zm0,15.5H229.1V114H210.89Zm26-24.54V114h18.22V94.17L260.78,89l17.79,25.4H298.1l-25.61-37,23-22.38H273.36L255.14,73.07V37.35Zm196.56,0V114h18.23V94.17L457.35,89l17.79,25.4h19.53l-25.6-37,23-22.38H469.93L451.71,73.07V37.35Z"/><path class="cls-1" d="M391,114.4a31.43,31.43,0,1,0,0-62.85h-.43a31.43,31.43,0,1,0,0,62.85ZM375.34,83a15.41,15.41,0,1,1,15.41,15.28A15.35,15.35,0,0,1,375.34,83Z"/><path class="cls-1" d="M101.7,27.48A32.84,32.84,0,0,1,87.32,6a32.76,32.76,0,0,1-.56-6H63.2l0,94.46A19.9,19.9,0,1,1,49.22,74.81V50.75a43.37,43.37,0,1,0,37.54,43V45.81a56,56,0,0,0,32.8,10.55V32.79A32.6,32.6,0,0,1,101.7,27.48Z"/></svg>