<svg id="katman_1" data-name="katman 1" xmlns="http://www.w3.org/2000/svg" viewBox="0 0 512 103.3"><defs><style>.cls-1{fill:#303030;fill-rule:evenodd;}</style></defs><path class="cls-1" d="M157.3,0H16.1A16.11,16.11,0,0,0,0,16.2V70.1A16.2,16.2,0,0,0,16.2,86.3H83l30.6,17-6.9-17h50.6a16.2,16.2,0,0,0,16.2-16.2V16.2A16.26,16.26,0,0,0,157.3,0ZM13.1,12.5a5.78,5.78,0,0,0-4.5,2.2,6.43,6.43,0,0,0-1.1,4.8q6.3,39.9,11.7,53.8c1.4,3.4,3,5,5,4.9,3-.2,6.5-4.3,10.7-12.3q3.3-6.75,10.2-20.4C48.9,58.9,54.2,69,60.8,75.7c1.8,1.9,3.8,2.8,5.6,2.6a4.63,4.63,0,0,0,3.8-2.6,8.82,8.82,0,0,0,.9-4.7c-.4-6.5.2-15.5,2-27,1.8-11.9,4.1-20.5,6.9-25.6a5.67,5.67,0,0,0,.7-3.4,5.43,5.43,0,0,0-2.2-4A6.09,6.09,0,0,0,74,9.6a5.34,5.34,0,0,0-4.7,3.1c-4.4,8-7.5,21-9.4,39a126.55,126.55,0,0,1-6.7-24.2c-.8-4.2-2.7-6.2-5.8-6-2.1.1-3.9,1.6-5.3,4.3L26.6,55.4c-2.6-10.3-5-22.8-7.2-37.7C18.8,13.9,16.7,12.2,13.1,12.5Zm136.7,5.1a16.47,16.47,0,0,1,11.3,8.2c2.3,3.8,3.4,8.4,3.4,14A38,38,0,0,1,159,59.9c-4.3,7.1-9.8,10.6-16.7,10.6a17,17,0,0,1-3.8-.4,16.47,16.47,0,0,1-11.3-8.2,27.15,27.15,0,0,1-3.4-14,37.39,37.39,0,0,1,5.5-20c4.3-7.1,9.9-10.6,16.7-10.6A12.93,12.93,0,0,1,149.8,17.6Zm-3,38.3q3.9-3.45,5.4-10.5a28.67,28.67,0,0,0,.5-5.2,17.12,17.12,0,0,0-1.3-6.5c-1.1-2.8-2.5-4.3-4.2-4.6-2.6-.5-5,.9-7.4,4.4a24.3,24.3,0,0,0-3.8,8.4,21.87,21.87,0,0,0-.5,5.2,17.12,17.12,0,0,0,1.3,6.5c1.1,2.8,2.5,4.3,4.2,4.6S144.7,57.8,146.8,55.9ZM116.6,25.8a16.31,16.31,0,0,0-11.3-8.2,17,17,0,0,0-3.8-.4c-6.8,0-12.3,3.5-16.7,10.6a37.39,37.39,0,0,0-5.5,20,26.9,26.9,0,0,0,3.4,14A16.11,16.11,0,0,0,94,70a17,17,0,0,0,3.8.4c6.9,0,12.4-3.5,16.7-10.6A38,38,0,0,0,120,39.7C120,34.2,118.9,29.6,116.6,25.8Zm-8.9,19.6q-1.5,7.05-5.4,10.5c-2.1,1.8-4,2.6-5.7,2.3s-3.1-1.8-4.2-4.6a17.12,17.12,0,0,1-1.3-6.5,22.38,22.38,0,0,1,.5-5.2,21.1,21.1,0,0,1,3.8-8.4c2.3-3.5,4.8-4.9,7.4-4.4,1.7.4,3.1,1.8,4.2,4.6a17.12,17.12,0,0,1,1.3,6.5A28.5,28.5,0,0,1,107.7,45.4Z"/><path class="cls-1" d="M191.4,25.2c-4.8,4.7-7.1,10.6-7.1,17.9,0,7.7,2.3,14,7,18.8s10.8,7.2,18.4,7.2a30.15,30.15,0,0,0,7.4-1.1V56.5a24.5,24.5,0,0,1-6.5,1.1,11.55,11.55,0,0,1-9-3.8c-2.3-2.6-3.4-6-3.4-10.3a14.62,14.62,0,0,1,3.3-9.9,10.66,10.66,0,0,1,8.4-3.9,27.33,27.33,0,0,1,7.1,1.1V19.3a31.28,31.28,0,0,0-7.7-.9C202.1,18.2,196.1,20.5,191.4,25.2Zm49.2-7c-6.5,0-11.6,2.2-15.3,6.5s-5.5,10.4-5.5,18.2c0,8.4,1.8,14.9,5.5,19.4s8.9,6.7,15.9,6.7c6.7,0,11.9-2.3,15.5-6.7s5.5-10.8,5.5-18.9-1.8-14.3-5.5-18.7C252.8,20.3,247.5,18.2,240.6,18.2ZM246.2,55a6.32,6.32,0,0,1-5.6,3,5.69,5.69,0,0,1-5.2-3q-1.8-3-1.8-12c0-9.3,2.3-13.9,7.1-13.9q7.5,0,7.5,14.1C248.2,49.1,247.5,53,246.2,55Zm51-35.5-2.6,10.8c-.6,2.8-1.3,5.6-1.8,8.5l-1.4,7.5c-1.3-7.5-3.2-16.4-5.5-26.9H269.5l-6.2,48.3h12.3l3.3-33.3,8.4,33.3h8.8l8.1-33.2,3.5,33.2h12.9l-6.5-48.3H297.2Zm59,0-2.6,10.8c-.6,2.8-1.3,5.6-1.8,8.5l-1.4,7.5c-1.3-7.5-3.2-16.4-5.5-26.9H328.5l-6.2,48.3h12.3l3.3-33.3,8.4,33.3h8.8l8-33.2,3.5,33.2h12.9L373,19.4H356.2Zm40.2,29.2H408v-10H396.4V29.8h13.3V19.5H383.3V67.8h26.4V57.5H396.3V48.7Zm50.1-7.6a13.5,13.5,0,0,0,2.1-6.8,12.87,12.87,0,0,0-5.3-10.8c-3.5-2.6-8.4-4-14.5-4H413.6V67.8h13v-22h.2l10.6,22h13.8L440.7,46A12.69,12.69,0,0,0,446.5,41.1Zm-20-.8V28.8c3.1.1,5.3.6,6.7,1.6a5.7,5.7,0,0,1,2,4.8Q435.05,40.15,426.5,40.3Zm29.7-15.1c-4.7,4.7-7.1,10.6-7.1,17.9,0,7.7,2.3,14,7,18.8s10.8,7.2,18.4,7.2a30.15,30.15,0,0,0,7.4-1.1V56.5a24.5,24.5,0,0,1-6.5,1.1,11.55,11.55,0,0,1-9-3.8c-2.3-2.6-3.4-6-3.4-10.3a14.62,14.62,0,0,1,3.3-9.9,10.66,10.66,0,0,1,8.4-3.9,27.33,27.33,0,0,1,7.1,1.1V19.3a31.28,31.28,0,0,0-7.7-.9A23.65,23.65,0,0,0,456.2,25.2Zm42.3,32.2V48.6h11.6v-10H498.5V29.7h13.4V19.4H485.5V67.7H512V57.4Z"/></svg>