<svg id="Layer_1" data-name="Layer 1" xmlns="http://www.w3.org/2000/svg" viewBox="0 0 148.89 148.84"><path d="M73.8,64.36c3.94-3.63,7-6.32,10-9.2C101.06,38,118.28,20.74,135.66,3.65A11.77,11.77,0,0,1,142,.33a6.32,6.32,0,0,1,6.54,8.45,16.24,16.24,0,0,1-3.86,5.83Q116.42,43.1,88,71.43c-.94.94-1.74,2-2.86,3.35,12.17,12.24,24.16,24.27,36.1,36.33q12.39,12.51,24.68,25.11c3.58,3.66,3.9,7.44,1,10.57s-6.91,2.72-10.57-.91q-26.25-26-52.45-52c-1.51-1.5-3.19-2.8-4.71-4.29-5.17-5-4.09-5.27-9.38,0-18.47,18.48-36.89,37-55.51,55.32a14.18,14.18,0,0,1-7.75,3.68c-2.81.35-4.95-1.87-6-4.75-1.17-3.12.36-5.39,2.29-7.39,6.87-7.09,13.85-14.07,20.79-21.09C36.13,102.66,48.64,89.9,61.33,77.31c2.33-2.32,2-3.62-.12-5.71Q32.76,43.33,4.48,14.86A23.38,23.38,0,0,1,.82,9.74C-.73,7,0,4.31,2.12,2.21A6.65,6.65,0,0,1,10.39.89,23.09,23.09,0,0,1,15.62,5Q43.25,32.58,70.76,60.22A37.06,37.06,0,0,1,73.8,64.36Z"/></svg>