<svg id="Layer_1" data-name="Layer 1" xmlns="http://www.w3.org/2000/svg" viewBox="0 0 898.18 200.49"><defs><style>.cls-1{fill:#303030;}</style></defs><path class="cls-1" d="M134,200.49c-5.43-.29-10.87-.61-16.31-.89-25.74-1.3-51.53-2-77.21-4.07-21-1.66-31.76-12.19-35.61-32.65a224.43,224.43,0,0,1-3.14-22.64C-1,107.61-.65,75,3.85,42.54,5.64,29.61,9.27,17.43,21.56,10.83A62.49,62.49,0,0,1,42.3,4.59C54.15,3,66.15,2.32,78.11,1.83,99.55,1,121-.33,142.45.08,178,.76,213.68.35,249,5.24c17.56,2.42,28.59,12.87,32,30.12,5.53,28.37,5.57,57.06,4.51,85.75a375,375,0,0,1-3.71,39.57c-3.19,22.11-14.46,33.27-36.76,34.9-28.68,2.09-57.46,2.82-86.2,4.18-2.29.1-4.57.48-6.85.73ZM114.56,57v86.37c25.17-14.5,49.6-28.57,75-43.2C164,85.5,139.69,71.47,114.56,57Z"/><path class="cls-1" d="M898.18,132.81c-14.48-.07-29-.1-43.44-.24-2.7,0-4,.81-3.88,3.67.35,7.28.31,14.6,1,21.85s4,10.49,9.61,10.62c6.14.15,9.64-3.27,10.77-10.66.5-3.25.85-6.53,1.33-10.35,7.3.37,14.55.66,21.78,1.23.71,0,1.73,1.8,1.85,2.84,2.2,18.77-8.84,33.16-27.73,35a80.32,80.32,0,0,1-22.19-1.27,22.56,22.56,0,0,1-17.8-15.85c-2.61-8.13-4.93-16.65-5.4-25.11-1-18.84-2-37.81,1.71-56.53C828.4,74.6,834.29,63.53,849,59.86a54.43,54.43,0,0,1,26.66,0c12.26,3.05,17.75,12,20.25,23.44.92,4.18,1.53,8.42,2.29,12.64Zm-47.6-30.12.31,0a75.93,75.93,0,0,0,.14,9.9c.16,1.22,1.92,3.09,3.06,3.17a114.27,114.27,0,0,0,14.92,0c1.06-.07,2.9-1.83,2.88-2.79-.16-8.91-.24-17.87-1.2-26.71-.73-6.68-4.17-9.33-9.62-9.21-5.27.11-8.25,3.06-9.17,9.8C851.19,92.13,851,97.43,850.58,102.69Z"/><path class="cls-1" d="M758.12,173.89c-1.19,4.33-2.13,7.78-3.14,11.49H732.29V8.66h26.46V72.17l1.16.28,2.3-2.83c5.46-6.8,12.33-11.08,21.25-11.35,11.94-.37,19.69,4.48,22.74,16a113.83,113.83,0,0,1,4.23,27.86c.15,19-.84,38-1.81,57-.22,4.35-1.85,8.76-3.5,12.88-7.14,17.83-31.7,21.08-43.73,5.91C760.52,176.83,759.62,175.74,758.12,173.89Zm25.44-51.11c-1-12.33-1.86-24.19-3.13-36-.44-4.07-2.56-7.63-7.16-8.57S765,79.48,762.6,83.06c-1.82,2.77-3.5,6.26-3.55,9.46q-.45,32.53,0,65.08a11.37,11.37,0,0,0,4.18,7.71c6.91,5.25,15.45,2.05,16.89-6.91C782.06,146.54,782.51,134.44,783.56,122.78Z"/><path class="cls-1" d="M569.29,185.4H547.91c-.89-4.7-1.76-9.28-2.84-15-1.64,2.23-2.61,3.46-3.5,4.75-5.34,7.8-12.81,11.84-22.19,12.51-14.44,1-23.63-7.06-25.41-22.62a140.88,140.88,0,0,1-.92-15.37c-.08-27.85.08-55.71-.15-83.57,0-4.75,1.47-5.92,5.93-5.71,7.12.33,14.27.09,22,.09.1,2.22.27,4.15.27,6.07q0,41.79,0,83.57a59.57,59.57,0,0,0,.62,9.91c1,5.91,3.67,8.29,8.3,8.08,5.62-.25,11.17-5,11.53-9.85.1-1.32,0-2.65,0-4V60.94h27.68Z"/><path class="cls-1" d="M638.72,60.56c8.52,0,16.79-.1,25,.15.86,0,2.28,2.1,2.35,3.29.29,4.46.12,8.94.12,13.42q0,37.05,0,74.11a48.73,48.73,0,0,0,.75,8.87c1.08,5.77,3.46,7.93,7.94,7.77,5.36-.18,11.06-4.7,11.57-9.25a37.53,37.53,0,0,0,.05-4q0-45,0-90c0-1.15.1-2.3.17-3.92h27.48V185.64c-6.45,0-12.72.14-19-.14-1-.05-2.55-1.81-2.85-3-.91-3.64-1.33-7.41-2.15-12.41-1.71,2.4-2.74,3.77-3.7,5.19a26.36,26.36,0,0,1-16.28,11.51c-17.39,4-28.62-3.57-31.2-21.24a73.85,73.85,0,0,1-.63-10.41q-.08-44.78,0-89.53C638.43,64.13,638.59,62.68,638.72,60.56Z"/><path class="cls-1" d="M478.89,125.14c-.85,9.73-1.19,21.21-3,32.45-3.67,23.2-16.91,31.26-40.48,30-20.29-1.13-29.91-9.91-33-29.9a212.44,212.44,0,0,1,0-67.85c4.06-24.44,18.47-33.93,44.19-31,18.48,2.07,27.51,12.76,30.07,33.92C477.91,102.85,478.11,113.15,478.89,125.14Zm-28.43-2-.63,0c0-9.12.24-18.24-.11-27.35-.16-4.23-.69-8.81-2.52-12.51-1.3-2.62-4.81-5-7.77-5.75-3.71-1-6.61,1.87-7.94,5.42a25.19,25.19,0,0,0-2,8.13c-.39,19.54-.73,39.09-.64,58.63a40.62,40.62,0,0,0,2.82,14A8.06,8.06,0,0,0,445.5,166a13.53,13.53,0,0,0,3.11-7.13C449.46,147,449.88,135.06,450.46,123.16Z"/><path class="cls-1" d="M361.22,98.78Q367,71.6,372.82,44.42c1.92-8.9,3.85-17.81,6-26.66.3-1.27,1.84-3.15,2.86-3.18,8.25-.26,16.51-.15,25.48-.15-3.1,11.1-6,21.44-8.87,31.76-7.36,26.15-14.78,52.28-22,78.45a40.31,40.31,0,0,0-1.44,10.25c-.15,14.92-.06,29.85-.06,44.77v5.67H347c0-4.82-.29-9.43,0-14,2.07-28.15-2.47-55.26-11.11-82.08-7.41-23-13.17-46.54-19.64-69.84-.39-1.41-.67-2.85-1.16-5,8.8,0,17.22-.11,25.62.16.94,0,2.35,2.08,2.62,3.38,5.46,25.76,10.77,51.55,16.13,77.33.25,1.23.64,2.42,1,3.63Z"/><path class="cls-1" d="M618.35,185.39h-27.2v-6.54c0-45.25-.08-90.51.12-135.76,0-5.12-1.49-6.64-6.5-6.35-6.93.41-13.91.11-21.28.11V14.71h82.65V36.85c-7.42,0-14.86.24-22.27-.09-4.39-.2-5.63,1.16-5.62,5.57.16,45.58.1,91.17.1,136.75Z"/></svg>